<?xml version="1.0" encoding="utf-8"?>
<!-- Generator: Adobe Illustrator 22.1.0, SVG Export Plug-In . SVG Version: 6.00 Build 0)  -->
<svg version="1.1" id="Layer_1" xmlns="http://www.w3.org/2000/svg" xmlns:xlink="http://www.w3.org/1999/xlink" x="0px" y="0px"
	 viewBox="0 0 16 16" style="enable-background:new 0 0 16 16;" xml:space="preserve">
<style type="text/css">
	.st0{fill:#FFFFFF;}
</style>
<g id="Page-1">
	<g id="Icons-AV" transform="translate(-212.000000, 0.000000)">
		<g id="loop" transform="translate(212.000000, 0.000000)">
			<path id="Shape" class="st0" d="M13.8,8c0-3.2-2.6-5.8-5.8-5.8c-1.2,0-2.2,0.4-3.1,0.9L6,4.2c0.6-0.3,1.3-0.5,2-0.5
				c2.4,0,4.4,2,4.4,4.4l-2.2,0l2.9,2.9L16,8.1L13.8,8L13.8,8z M3.6,8l2.2,0L2.9,5.1L0,8l2.2,0c0,3.2,2.6,5.8,5.8,5.8
				c1.2,0,2.2-0.4,3.1-0.9L10,11.9c-0.6,0.3-1.3,0.5-2,0.5C5.6,12.4,3.6,10.4,3.6,8L3.6,8z"/>
		</g>
	</g>
</g>
</svg>
